<svg width="62" height="53" viewBox="0 0 62 53" fill="none" xmlns="http://www.w3.org/2000/svg">
<path d="M14.2857 52.696C23.9803 52.696 31.5869 42.7528 34.2715 26.5455C36.9562 10.3381 32.6309 0.394884 22.9363 0.394884C13.2417 0.394884 5.73459 10.3878 3.04993 26.5455C0.365268 42.8026 4.59112 52.696 14.2857 52.696ZM14.3852 51.1051C5.48601 51.1051 2.15504 41.4851 4.64084 26.5455C7.22606 10.8601 14.3354 1.98579 22.9363 1.98579C31.736 1.98579 35.1415 11.6555 32.6806 26.5455C30.0705 42.2805 22.8866 51.1051 14.3852 51.1051ZM61.6767 1.09091H59.4892L47.6568 8.15057L47.3585 10.0398L59.4892 2.78125H59.7875L51.6341 52H53.225L61.6767 1.09091Z" fill="black" fill-opacity="0.15"/>
</svg>
