<svg width="71" height="53" viewBox="0 0 71 53" fill="none" xmlns="http://www.w3.org/2000/svg">
<path d="M14.2857 52.696C23.9803 52.696 31.5869 42.7528 34.2715 26.5455C36.9562 10.3381 32.6309 0.394884 22.9363 0.394884C13.2417 0.394884 5.73459 10.3878 3.04993 26.5455C0.365268 42.8026 4.59112 52.696 14.2857 52.696ZM14.3852 51.1051C5.48601 51.1051 2.15504 41.4851 4.64084 26.5455C7.22606 10.8601 14.3354 1.98579 22.9363 1.98579C31.736 1.98579 35.1415 11.6555 32.6806 26.5455C30.0705 42.2805 22.8866 51.1051 14.3852 51.1051ZM34.6312 52H65.3556L65.6539 50.4091H37.4153V50.2102L55.4125 32.4119C64.7591 23.1648 67.8414 19.1875 68.7363 13.5199C70.0289 5.96307 65.2562 0.394884 57.6 0.394884C49.6454 0.394884 43.0829 6.46023 41.8897 13.8182H43.4806C44.5744 7.35511 50.5403 1.98579 57.6 1.98579C64.3613 1.98579 68.2392 6.85795 67.1454 13.5199C66.35 18.5909 63.5659 22.3693 54.3187 31.4176L34.8301 50.7074L34.6312 52Z" fill="black" fill-opacity="0.15"/>
</svg>
