<svg width="72" height="53" viewBox="0 0 72 53" fill="none" xmlns="http://www.w3.org/2000/svg">
<path d="M14.2857 52.696C23.9803 52.696 31.5869 42.7528 34.2715 26.5455C36.9562 10.3381 32.6309 0.394884 22.9363 0.394884C13.2417 0.394884 5.73459 10.3878 3.04993 26.5455C0.365268 42.8026 4.59112 52.696 14.2857 52.696ZM14.3852 51.1051C5.48601 51.1051 2.15504 41.4851 4.64084 26.5455C7.22606 10.8601 14.3354 1.98579 22.9363 1.98579C31.736 1.98579 35.1415 11.6555 32.6806 26.5455C30.0705 42.2805 22.8866 51.1051 14.3852 51.1051ZM50.242 52.696C59.1909 52.696 66.35 46.6307 67.6426 38.7756C68.7363 32.3125 65.2562 27.4403 58.8926 25.75V25.5511C64.9579 23.8608 69.4324 19.3864 70.3272 13.4205C71.6199 5.96307 66.8471 0.394884 58.7931 0.394884C50.8386 0.394884 44.0772 5.96307 42.7846 13.8182H44.3755C45.4693 6.85795 51.8329 1.98579 58.8926 1.98579C66.1511 1.98579 69.8301 6.85795 68.7363 13.4205C67.6426 20.4801 60.9806 24.9545 53.3244 24.9545H52.5289L52.3301 26.5455H53.1255C61.7761 26.5455 67.2449 31.4176 66.0517 38.7756C64.9579 45.5369 58.296 51.1051 50.242 51.1051C42.5858 51.1051 37.813 46.1335 38.9068 39.2727H37.3159C36.0233 47.0284 41.6909 52.696 50.242 52.696Z" fill="black" fill-opacity="0.15"/>
</svg>
